<svg xmlns="http://www.w3.org/2000/svg" width="20" height="20" viewBox="0 0 20 20">
    <path data-name="Path 7384" d="M0 20V0h20v20z" style="fill:none"/>
    <g data-name="Group 15408">
        <path data-name="Path 7385" d="M22.667 14.333A8.333 8.333 0 1 0 31 22.667a8.333 8.333 0 0 0-8.333-8.333zm3.15 10.6a.625.625 0 0 1-.884.884l-2.266-2.267-2.267 2.267a.625.625 0 1 1-.884-.883l2.267-2.267-2.266-2.267a.625.625 0 0 1 .884-.884l2.266 2.266 2.266-2.266a.625.625 0 0 1 .884.884l-2.267 2.267z" transform="translate(-12.666 -12.666)" style="fill:#333"/>
    </g>
</svg>
